<svg enable-background="new 0 0 512 512" viewBox="0 0 512 512" xmlns="http://www.w3.org/2000/svg"><path d="m256 0c141.386 0 256 114.614 256 256s-114.614 256-256 256-256-114.614-256-256 114.614-256 256-256z" fill="#666"/><path d="m256 175.948c92.099 0 178.082 10.761 250.976 29.388 3.29 16.378 5.024 33.32 5.024 50.664 0 141.386-114.614 256-256 256s-256-114.614-256-256c0-17.344 1.734-34.283 5.023-50.661 72.897-18.628 158.875-29.391 250.977-29.391z" fill="#7ea551"/><path d="m5.8 201.648c25.748-40.01 50.545-75.057 76.706-102.979 8.888-9.49 24.834-10.12 35.071-3.425 68.362 44.718 96.9 91.114 115.743 137.918l-233.148 13.955c.534-15.549 2.446-30.742 5.628-45.469z" fill="#8cab67"/><path d="m107.875 91.371c3.498.689 6.828 1.993 9.703 3.873 68.362 44.718 96.9 91.114 115.743 137.918l-113.542 6.739s-7.815-14.946-26.585-37.715c-18.769-22.768 36.636-20.315 19.497-51.701-17.135-31.387-4.816-59.114-4.816-59.114z" fill="#4d7229"/><path d="m245.534 238.642c27.737-60.589 61.874-122.688 149.695-197.491 64.277 41.739 108.638 111.537 115.749 192.039-87.802 1.67-178.746 4.029-265.444 5.452z" fill="#8cab67"/><path d="m510.996 233.403-126.248 2.95c-31.068-33.361.421-56.322 7.949-57.206 8.636-1.015 62.949-53.541 25.662-68.634-22.847-9.252-16.942-38.333-8.943-59.467 56.62 42.457 95.059 107.829 101.58 182.357z" fill="#4d7229"/><path d="m243.562 13.687c20.251 0 36.668 16.419 36.668 36.67 0 20.252-16.417 36.671-36.668 36.671-20.254 0-36.671-16.419-36.671-36.671 0-20.251 16.417-36.67 36.671-36.67z" fill="#fff"/><path d="m138.402 225.379c-.126.472-2.724 19.615-2.724 19.615l5.52.465-.059-19.326z" fill="#785448"/><path d="m128.905 190.992s9.121-1.816 8.075.532c-1.047 2.348-12.784 8.464-12.784 8.464s9.318-1.335 7.918 1.858c-1.397 3.193-12.999 8.555-12.999 8.555s14.999-2.309 10.898 1.945c-4.105 4.254-18.968 11.419-18.968 11.419s18.9-3.997 18.293.745c-.605 4.739-8.315 6.098-9.921 9.096 0 0 18.648-3.313 20.684-.777 2.122.005 20.93 3.289 20.961 2.47-1.372-3.088-9.348-5.354-9.595-10.12-.245-4.767 18.307.362 18.307.362s-14.289-8.042-18.057-12.537c-3.77-4.49 11.018-1.285 11.018-1.285s-11.167-6.049-12.322-9.318c-1.154-3.272 8.043-1.377 8.043-1.377s-11.247-6.812-12.113-9.217c-.868-2.405 8.095-.042 8.095-.042-7.548-6.345-10.319-12.988-12.159-16.478-2.095 3.37-5.364 9.83-13.374 15.705z" fill="#2e7c32"/><path d="m128.905 190.992s9.121-1.816 8.075.532c-1.047 2.348-12.784 8.464-12.784 8.464s9.318-1.335 7.918 1.858c-1.397 3.193-12.999 8.555-12.999 8.555s14.999-2.309 10.898 1.945c-4.105 4.254-18.968 11.419-18.968 11.419s18.9-3.997 18.293.745c-.605 4.739-8.315 6.098-9.921 9.096-3.809 1.312 15.407-2.318 20.684-.777l2.348-57.219-.169-.323c-2.096 3.37-5.365 9.83-13.375 15.705z" fill="#388d3c"/><path d="m233.105 134.748 56.933 114.758c.994 2.004.889 4.203-.291 6.107-1.18 1.899-3.103 2.971-5.342 2.971h-98.563c-2.206 0-4.105-1.037-5.294-2.895s-1.34-4.018-.415-6.022z" fill="#d3df56"/><path d="m233.105 134.748-22.675 123.835h45.471z" fill="#817616"/><path d="m112.957 242.244c.3-5.321 7.88-4.716 8.221 0v14.512h-8.221z" fill="#785448"/><path d="m355.053 240.462c-.303-5.321-7.882-4.717-8.224 0v14.511h8.224z" fill="#785448"/><path d="m233.105 134.748 86.354 81.763-35.594 20.552zm0 0-83.445 83.445 35.594 20.549z" fill="#e5ed9b"/><path d="m354.994 242.44h-8.051l-28.019-25.616-1.585.911 29.462 26.812 2.46.009h5.733zm-241.977 1.784h8.047l28.843-25.891 1.606.93-30.335 27.176-2.428-.098h-5.733z" fill="#ffd500"/><path d="m157.53 295.337c79.407 0 103.731-12.076 156.605-12.076 63.774 0 115.47 34.973 115.47 78.113 0 43.141-51.697 78.115-115.47 78.115-85.149 0-54.329-37.738-156.605-37.738-45.64 0-82.641-23.823-82.641-53.206.001-29.388 37.001-53.208 82.641-53.208z" fill="#4cb5ab"/><path d="m170.429 314.362c-14.348 0-29.755 3.056-42.317 10.212-8.141 4.638-16.689 12.092-18.634 21.711-.266 1.319-.403 2.659-.403 4.006s.137 2.682.403 4.002c1.945 9.62 10.494 17.076 18.634 21.711 12.562 7.158 27.969 10.214 42.317 10.214 17.631 0 36.781 1.109 53.733 6.329 10.707 3.298 18.573 7.772 28.026 13.457 18.29 10.995 32.034 12.814 53.52 12.814 20.615 0 42.408-4.618 60.305-15.138 12.885-7.573 25.199-19.292 28.543-34.405.573-2.593.864-5.241.864-7.901 0-2.657-.291-5.305-.864-7.898-3.344-15.114-15.659-26.833-28.543-34.405-17.897-10.521-39.69-15.139-60.305-15.139-13.213 0-26.026 1.022-39.124 2.658-13.302 1.658-26.514 3.655-39.864 5.032-18.739 1.93-37.448 2.74-56.291 2.74z" fill="#5ebcb3"/><path d="m461.139 292.414c-8.977 0-16.247 8.022-16.247 17.924h32.49c0-9.902-7.276-17.924-16.243-17.924zm-412.658-3.606c-18.664 0-33.793 16.697-33.793 37.289h67.589c0-20.592-15.129-37.289-33.796-37.289zm29.212-26.129c-7.291 0-13.201 6.522-13.201 14.564h26.401c.001-8.042-5.909-14.564-13.2-14.564zm106.473 149.864c-8.972 0-16.249 8.021-16.249 17.924h32.495c-.001-9.902-7.276-17.924-16.246-17.924zm202.729-142.937c-7.289 0-13.199 6.531-13.199 14.568h26.402c.001-8.037-5.91-14.568-13.203-14.568z" fill="#e5e5e5"/><path d="m211.921 338.204c-7.071 0-14.667 1.505-20.856 5.034-4.013 2.284-8.228 5.958-9.185 10.699-.133.651-.199 1.31-.199 1.974 0 .662.066 1.322.199 1.972.958 4.74 5.172 8.416 9.185 10.702 6.189 3.528 13.785 5.032 20.856 5.032 8.691 0 18.128.547 26.484 3.12 5.275 1.624 9.153 3.832 13.813 6.631 9.016 5.422 15.789 6.318 26.381 6.318 10.159 0 20.902-2.277 29.72-7.461 6.355-3.734 12.423-9.508 14.069-16.96.284-1.278.426-2.584.426-3.894 0-1.308-.142-2.613-.426-3.892-1.647-7.451-7.715-13.226-14.069-16.96-8.818-5.184-19.561-7.461-29.72-7.461-6.514 0-12.83.504-19.282 1.31-6.558.818-13.07 1.802-19.649 2.48-9.238.957-18.46 1.356-27.747 1.356z" fill="#6ec3bb"/></svg>