<svg height="512.00003pt" viewBox="0 0 512.00003 512.00003" width="512.00003pt" xmlns="http://www.w3.org/2000/svg"><path d="m127.191406 422.242188-2.515625-2.515626c-12.265625-12.265624-15.308593-31.003906-7.550781-46.523437l13.042969-26.085937h-60.746094l-55.320313 86.929687c-3.542968 5.570313-5.425781 12.035156-5.425781 18.640625v59.3125h503.324219v-69.421875h-335.714844c-18.414062 0-36.074218-7.316406-49.09375-20.335937zm0 0" fill="#6fbbc6"/><path d="m285.359375 136.632812 32.722656 16.101563c21.304688 10.492187 38.632813 27.613281 49.378907 48.792969l16.488281 32.535156-27.222657-11.019531c-27.128906-10.988281-48.746093-32.351563-60.042968-59.351563zm0 0" fill="#89b140"/><path d="m255.921875 286.085938 36.394531-2.601563c23.683594-1.703125 46.179688-11.042969 64.105469-26.617187l27.542969-23.925782h-29.367188c-29.265625-.035156-57.335937 11.621094-77.96875 32.378906zm0 0" fill="#89b140"/><path d="m512 286.085938-36.386719-2.601563c-23.6875-1.703125-46.183593-11.039063-64.113281-26.617187l-27.535156-23.949219h29.359375c29.265625-.039063 57.335937 11.617187 77.96875 32.375zm0 0" fill="#89b140"/><path d="m419.527344 442.578125h-56.902344l16.316406-48.953125c7.914063-23.75 8.695313-49.296875 2.246094-73.484375l-18.5625-69.625-6.828125-16.210937h34.710937l7.679688 16.210937 17.289062 55.320313c12.007813 38.425781 14.519532 79.1875 7.3125 118.792968zm0 0" fill="#70400e"/><path d="m383.964844 95.457031-11.542969 34.609375c-7.507813 22.53125-7.507813 46.890625 0 69.421875l11.542969 34.617188 11.28125-27.109375c11.253906-27.019532 11.253906-57.410156 0-84.429688zm0 0" fill="#89b140"/><path d="m482.5625 136.632812-32.722656 16.101563c-21.304688 10.492187-38.628906 27.613281-49.371094 48.792969l-16.488281 32.535156 27.214843-11.019531c27.113282-10.984375 48.71875-32.335938 60.019532-59.316407zm0 0" fill="#89b140"/><path d="m147.523438 104.136719c0 23.960937-19.425782 43.386719-43.386719 43.386719-23.964844 0-43.390625-19.425782-43.390625-43.386719 0-23.964844 19.425781-43.390625 43.390625-43.390625 23.960937 0 43.386719 19.425781 43.386719 43.390625zm0 0" fill="#fbb540"/><g fill="#ea9d2d"><path d="m104.136719 34.710938c-4.792969 0-8.679688-3.882813-8.679688-8.675782v-17.355468c0-4.792969 3.886719-8.679688 8.679688-8.679688s8.675781 3.886719 8.675781 8.679688v17.355468c0 4.792969-3.882812 8.675782-8.675781 8.675782zm0 0"/><path d="m48.910156 57.585938c-2.304687.007812-4.511718-.910157-6.136718-2.542969l-12.269532-12.269531c-3.449218-3.328126-3.542968-8.824219-.214844-12.269532 3.332032-3.449218 8.824219-3.542968 12.269532-.214844.074218.070313.144531.140626.214844.214844l12.269531 12.269532c3.390625 3.390624 3.390625 8.882812 0 12.273437-1.628907 1.625-3.832031 2.539063-6.132813 2.539063zm0 0"/><path d="m26.035156 112.8125h-17.355468c-4.792969 0-8.679688-3.882812-8.679688-8.675781s3.886719-8.679688 8.679688-8.679688h17.355468c4.792969 0 8.675782 3.886719 8.675782 8.679688s-3.882813 8.675781-8.675782 8.675781zm0 0"/><path d="m36.636719 180.3125c-4.792969-.003906-8.675781-3.890625-8.675781-8.683594 0-2.296875.914062-4.503906 2.542968-6.132812l12.269532-12.269532c3.449218-3.328124 8.941406-3.234374 12.269531.214844 3.25 3.363282 3.25 8.691406 0 12.054688l-12.269531 12.273437c-1.625 1.625-3.832032 2.539063-6.136719 2.542969zm0 0"/><path d="m104.136719 208.269531c-4.792969 0-8.679688-3.882812-8.679688-8.675781v-17.355469c0-4.792969 3.886719-8.679687 8.679688-8.679687s8.675781 3.886718 8.675781 8.679687v17.355469c0 4.792969-3.882812 8.675781-8.675781 8.675781zm0 0"/><path d="m171.632812 180.3125c-2.300781-.003906-4.507812-.917969-6.136718-2.542969l-12.269532-12.273437c-3.328124-3.445313-3.234374-8.941406.214844-12.269532 3.363282-3.246093 8.695313-3.246093 12.054688 0l12.273437 12.269532c3.386719 3.390625 3.386719 8.886718-.003906 12.273437-1.625 1.625-3.832031 2.539063-6.132813 2.542969zm0 0"/><path d="m199.59375 112.8125h-17.355469c-4.792969 0-8.679687-3.882812-8.679687-8.675781s3.886718-8.679688 8.679687-8.679688h17.355469c4.792969 0 8.675781 3.886719 8.675781 8.679688s-3.882812 8.675781-8.675781 8.675781zm0 0"/><path d="m159.363281 57.585938c-4.792969 0-8.679687-3.886719-8.675781-8.679688 0-2.300781.914062-4.503906 2.539062-6.132812l12.269532-12.269532c3.449218-3.332031 8.941406-3.234375 12.273437.210938 3.246094 3.363281 3.246094 8.695312 0 12.058594l-12.273437 12.269531c-1.621094 1.632812-3.832032 2.550781-6.132813 2.542969zm0 0"/></g><path d="m347.117188 433.898438h95.460937c38.339844 0 69.421875 31.082031 69.421875 69.421874v8.679688h-234.304688v-8.679688c0-38.339843 31.082032-69.421874 69.421876-69.421874zm0 0" fill="#f7ba61"/><path d="m78.101562 477.289062h-17.355468c-4.792969 0-8.679688-3.886718-8.679688-8.679687s3.886719-8.675781 8.679688-8.675781h17.355468c4.792969 0 8.679688 3.882812 8.679688 8.675781s-3.886719 8.679687-8.679688 8.679687zm0 0" fill="#64a8b2"/><path d="m130.167969 494.644531h-17.355469c-4.792969 0-8.675781-3.886719-8.675781-8.679687 0-4.792969 3.882812-8.675782 8.675781-8.675782h17.355469c4.792969 0 8.679687 3.882813 8.679687 8.675782 0 4.792968-3.886718 8.679687-8.679687 8.679687zm0 0" fill="#64a8b2"/><path d="m182.238281 477.289062h-17.355469c-4.792968 0-8.679687-3.886718-8.679687-8.679687s3.886719-8.675781 8.679687-8.675781h17.355469c4.792969 0 8.675781 3.882812 8.675781 8.675781s-3.882812 8.679687-8.675781 8.679687zm0 0" fill="#64a8b2"/><path d="m234.304688 494.644531h-17.355469c-4.792969 0-8.679688-3.886719-8.679688-8.679687 0-4.792969 3.886719-8.675782 8.679688-8.675782h17.355469c4.792968 0 8.679687 3.882813 8.679687 8.675782 0 4.792968-3.886719 8.679687-8.679687 8.679687zm0 0" fill="#64a8b2"/><path d="m321.085938 459.933594h17.355468v17.355468h-17.355468zm0 0" fill="#ea9d2d"/><path d="m355.796875 468.609375h17.355469v17.355469h-17.355469zm0 0" fill="#ea9d2d"/><path d="m390.507812 459.933594h17.355469v17.355468h-17.355469zm0 0" fill="#ea9d2d"/><path d="m425.21875 468.609375h17.359375v17.355469h-17.359375zm0 0" fill="#ea9d2d"/><path d="m459.933594 459.933594h17.355468v17.355468h-17.355468zm0 0" fill="#ea9d2d"/><path d="m216.949219 234.304688c-3.289063 0-6.296875-1.855469-7.765625-4.796876l-3.878906-7.757812c-1.46875-2.941406-4.472657-4.800781-7.757813-4.800781h-6.632813c-4.792968 0-8.675781-3.886719-8.675781-8.679688s3.882813-8.675781 8.675781-8.675781h6.632813c7.410156-.023438 14.476563 3.136719 19.402344 8.675781 4.925781-5.539062 11.992187-8.699219 19.402343-8.675781h6.632813c4.792969 0 8.675781 3.882812 8.675781 8.675781s-3.882812 8.679688-8.675781 8.679688h-6.632813c-3.285156 0-6.289062 1.859375-7.757812 4.800781l-3.878906 7.757812c-1.46875 2.941407-4.476563 4.796876-7.765625 4.796876zm0 0" fill="#cdcdcd"/><path d="m156.203125 269.015625c-3.289063.003906-6.296875-1.855469-7.765625-4.796875l-3.878906-7.757812c-1.46875-2.941407-4.472656-4.796876-7.757813-4.800782h-6.632812c-4.792969 0-8.675781-3.882812-8.675781-8.675781s3.882812-8.679687 8.675781-8.679687h6.632812c7.410157-.023438 14.476563 3.136718 19.402344 8.679687 4.925781-5.542969 11.992187-8.703125 19.402344-8.679687h6.632812c4.792969 0 8.675781 3.886718 8.675781 8.679687s-3.882812 8.675781-8.675781 8.675781h-6.632812c-3.285157.003906-6.289063 1.859375-7.757813 4.800782l-3.878906 7.757812c-1.46875 2.941406-4.476562 4.800781-7.765625 4.796875zm0 0" fill="#a8a8a8"/><path d="m381.121094 220.933594c0 11.785156-9.554688 21.339844-21.339844 21.339844s-21.339844-9.554688-21.339844-21.339844 9.554688-21.339844 21.339844-21.339844 21.339844 9.554688 21.339844 21.339844zm0 0" fill="#5e8569"/><path d="m430.914062 220.933594c0 11.785156-9.554687 21.339844-21.339843 21.339844-11.785157 0-21.339844-9.554688-21.339844-21.339844s9.554687-21.339844 21.339844-21.339844c11.785156 0 21.339843 9.554688 21.339843 21.339844zm0 0" fill="#5e8569"/><path d="m409.574219 242.269531c0 11.789063-9.554688 21.339844-21.339844 21.339844s-21.339844-9.550781-21.339844-21.339844c0-11.785156 9.554688-21.335937 21.339844-21.335937s21.339844 9.550781 21.339844 21.335937zm0 0" fill="#6b9777"/><path d="m147.527344 342.78125c0 11.980469-9.714844 21.695312-21.695313 21.695312-11.984375 0-21.695312-9.714843-21.695312-21.695312 0-11.984375 9.710937-21.695312 21.695312-21.695312 11.980469 0 21.695313 9.710937 21.695313 21.695312zm0 0" fill="#aedee2"/><path d="m121.804688 342.78125c0 11.980469-9.714844 21.695312-21.695313 21.695312s-21.695313-9.714843-21.695313-21.695312c0-11.984375 9.714844-21.695312 21.695313-21.695312s21.695313 9.710937 21.695313 21.695312zm0 0" fill="#8aced8"/><path d="m95.457031 342.78125c0 11.980469-9.710937 21.695312-21.695312 21.695312-11.980469 0-21.695313-9.714843-21.695313-21.695312 0-11.984375 9.714844-21.695312 21.695313-21.695312 11.984375 0 21.695312 9.710937 21.695312 21.695312zm0 0" fill="#6fbbc6"/></svg>