<svg height="511.99999pt" viewBox="1 1 511.99999 511.99999" width="511.99999pt" xmlns="http://www.w3.org/2000/svg"><path d="m309.320312 26.835938-112.765624 180.089843-58.3125-100.996093-137.605469 238.347656h-.636719v167.722656h512v-161.324219zm0 0" fill="#49824d"/><path d="m317.792969 282.484375h17.65625v70.621094h-17.65625zm0 0" fill="#917966"/><path d="m326.621094 220.6875c14.625 0 26.480468 11.859375 26.480468 26.484375v17.65625c0 14.625-11.855468 26.480469-26.480468 26.480469s-26.484375-11.855469-26.484375-26.480469v-17.65625c0-14.625 11.859375-26.484375 26.484375-26.484375zm0 0" fill="#92bc6d"/><path d="m0 382.367188c164.933594-62.5625 347.066406-62.5625 512 0v129.632812h-511.363281zm0 0" fill="#92bc6d"/><path d="m17.65625 397.242188h17.652344v88.273437h-17.652344zm0 0" fill="#917966"/><path d="m441.378906 308.964844h17.65625v123.585937h-17.65625zm0 0" fill="#917966"/><g fill="#49824d"><path d="m150.070312 512-6.851562-3.046875c-44.761719-21.230469-93.679688-32.25-143.21875-32.261719v35.308594zm0 0"/><path d="m105.929688 406.070312h17.65625v17.652344h-17.65625zm0 0"/><path d="m123.585938 388.414062h17.65625v17.65625h-17.65625zm0 0"/><path d="m141.242188 406.070312h17.652343v17.652344h-17.652343zm0 0"/><path d="m317.792969 476.691406c51.488281-40.046875 114.855469-61.792968 180.082031-61.792968h14.125v97.101562h-194.207031zm0 0"/><path d="m476.691406 459.035156h17.652344v17.65625h-17.652344zm0 0"/><path d="m459.035156 476.691406h17.65625v17.652344h-17.65625zm0 0"/></g><path d="m17.65625 35.308594h8.828125c0-19.5 15.808594-35.308594 35.308594-35.308594s35.308593 15.808594 35.308593 35.308594h44.140626c9.75 0 17.652343 7.90625 17.652343 17.65625s-7.902343 17.65625-17.652343 17.65625h-123.585938c-9.75 0-17.65625-7.90625-17.65625-17.65625s7.90625-17.65625 17.65625-17.65625zm0 0" fill="#c1dce5"/><path d="m423.722656 44.136719h70.621094c9.75 0 17.65625 7.90625 17.65625 17.65625s-7.90625 17.65625-17.65625 17.65625h-70.621094c-9.75 0-17.652344-7.90625-17.652344-17.65625s7.902344-17.65625 17.652344-17.65625zm0 0" fill="#c1dce5"/><path d="m361.929688 114.757812h70.621093c9.75 0 17.65625 7.90625 17.65625 17.65625s-7.90625 17.65625-17.65625 17.65625h-70.621093c-9.75 0-17.652344-7.90625-17.652344-17.65625s7.902344-17.65625 17.652344-17.65625zm0 0" fill="#c1dce5"/><path d="m26.484375 264.828125c14.625 0 26.480469 11.855469 26.480469 26.480469v88.277344c0 14.625-11.855469 26.484374-26.480469 26.484374-14.628906 0-26.484375-11.859374-26.484375-26.484374v-88.277344c0-14.625 11.855469-26.480469 26.484375-26.480469zm0 0" fill="#92bc6d"/><path d="m450.207031 229.515625c14.625 0 26.480469 11.859375 26.480469 26.484375v35.308594c0 14.628906-11.855469 26.484375-26.480469 26.484375s-26.484375-11.855469-26.484375-26.484375v-35.308594c0-14.625 11.859375-26.484375 26.484375-26.484375zm0 0" fill="#92bc6d"/><path d="m280.265625 335.855469 46.355469 176.144531h-141.242188l46.355469-176.144531" fill="#a9bfd1"/><path d="m247.171875 450.207031h17.65625v35.308594h-17.65625zm0 0" fill="#ffd884"/><path d="m247.171875 406.070312h17.65625v26.480469h-17.65625zm0 0" fill="#ffd884"/><path d="m247.171875 370.757812h17.65625v17.65625h-17.65625zm0 0" fill="#ffd884"/></svg>